<svg xmlns="http://www.w3.org/2000/svg" version="1.1" xmlns:xlink="http://www.w3.org/1999/xlink" xmlns:svgjs="http://svgjs.dev/svgjs" width="1000" height="1000" viewBox="0 0 1000 1000"><rect width="1000" height="1000" fill="#ffffff"></rect><g transform="matrix(0.7,0,0,0.7,149.57575757575756,282.1265587044535)"><svg viewBox="0 0 396 247" data-background-color="#ffffff" preserveAspectRatio="xMidYMid meet" height="623" width="1000" xmlns="http://www.w3.org/2000/svg" xmlns:xlink="http://www.w3.org/1999/xlink"><g id="tight-bounds" transform="matrix(1,0,0,1,0.2400000000000091,-0.09999999999999432)"><svg viewBox="0 0 395.52 247.2" height="247.2" width="395.52"><g><svg></svg></g><g><svg viewBox="0 0 395.52 247.2" height="247.2" width="395.52"><g transform="matrix(1,0,0,1,39.55199999999999,95.76986187779886)"><svg viewBox="0 0 316.416 55.66027624440228" height="55.66027624440228" width="316.416"><g><svg viewBox="0 0 316.416 55.66027624440228" height="55.66027624440228" width="316.416"><g><svg viewBox="0 0 316.416 55.66027624440228" height="55.66027624440228" width="316.416"><g><svg viewBox="0 0 316.416 55.66027624440228" height="55.66027624440228" width="316.416"><g><svg viewBox="0 0 316.416 55.66027624440228" height="55.66027624440228" width="316.416"><g><svg viewBox="0 0 316.416 30.02049335863378" height="30.02049335863378" width="316.416"><g transform="matrix(1,0,0,1,0,0)"><svg width="316.416" viewBox="1.75 -34.29999923706055 368.8800048828125 35" height="30.02049335863378" data-palette-color="#729343"><path d="M37.85-7.2L40.95-2.9Q39.55-1.3 37.8-0.3 36.05 0.7 33.5 0.7L33.5 0.7Q28.9 0.7 25.83-2.53 22.75-5.75 21.05-12.55L21.05-12.55 20.55-14.15 14.4-14.15 14.4-5.2 20.25-5.2 20.25 0 1.75 0 1.75-5.25 7.75-5.25 7.75-29.05 1.75-29.05 1.75-34.3 21.95-34.3Q28-34.3 31.58-31.63 35.15-28.95 35.15-24.25L35.15-24.25Q35.15-20.35 32.88-17.85 30.6-15.35 26.4-14.5L26.4-14.5 26.95-12.95Q28.3-8.85 30.03-7.13 31.75-5.4 33.9-5.4L33.9-5.4Q36.15-5.4 37.85-7.2L37.85-7.2ZM14.4-29.05L14.4-19.05 22.15-19.05Q24.8-19.05 26.7-20.38 28.6-21.7 28.6-24.25L28.6-24.25Q28.6-26.6 26.75-27.83 24.9-29.05 22.15-29.05L22.15-29.05 14.4-29.05ZM63.5-7.7L66.1-3.6Q61.1 0.7 54.55 0.7L54.55 0.7Q51.05 0.7 47.97-0.7 44.9-2.1 43-4.8 41.1-7.5 41.1-11.25L41.1-11.25Q41.1-15.15 43-18.07 44.9-21 48.05-22.6 51.2-24.2 54.75-24.2L54.75-24.2Q57.85-24.2 60.27-23.25 62.7-22.3 64.07-20.58 65.45-18.85 65.45-16.6L65.45-16.6Q65.45-14.35 64.07-12.73 62.7-11.1 60.47-10.3 58.25-9.5 55.7-9.5L55.7-9.5Q53.3-9.5 51.27-10 49.25-10.5 47.1-11.4L47.1-11.4Q47.15-8.2 49.35-6.38 51.55-4.55 54.8-4.55L54.8-4.55Q59.75-4.6 63.5-7.7L63.5-7.7ZM55.2-19.3Q52.95-19.3 50.92-18.07 48.9-16.85 47.85-14.8L47.85-14.8Q50.95-13.7 54.2-13.7L54.2-13.7Q56.45-13.75 57.82-14.5 59.2-15.25 59.2-16.6L59.2-16.6Q59.2-17.8 58.1-18.55 57-19.3 55.2-19.3L55.2-19.3ZM116.2-4.95L120.55-4.95 120.55 0 106 0 106-4.95 109.95-4.95 109.95-13.4Q109.95-15.6 108.87-16.95 107.8-18.3 105.8-18.3L105.8-18.3Q102.05-18.3 98.35-13.8L98.35-13.8 98.35-13.5 98.35-4.95 102.3-4.95 102.3 0 88 0 88-4.95 92.1-4.95 92.1-13.4Q92.1-15.6 91-16.95 89.9-18.3 87.85-18.3L87.85-18.3Q86-18.3 84.07-17.13 82.15-15.95 80.3-13.65L80.3-13.65 80.3-4.95 84.35-4.95 84.35 0 69.05 0 69.05-4.95 74.05-4.95 74.05-18.6 69.05-18.6 69.05-23.55 80.3-23.55 80.3-18.7Q82.4-21.35 84.9-22.75 87.4-24.15 90.15-24.15L90.15-24.15Q93-24.15 94.97-22.6 96.95-21.05 97.8-18.1L97.8-18.1Q99.95-21 102.55-22.58 105.15-24.15 108.05-24.15L108.05-24.15Q111.85-24.15 114.02-21.4 116.2-18.65 116.2-13.5L116.2-13.5 116.2-4.95ZM144.84-7.7L147.44-3.6Q142.44 0.7 135.89 0.7L135.89 0.7Q132.39 0.7 129.32-0.7 126.24-2.1 124.34-4.8 122.44-7.5 122.44-11.25L122.44-11.25Q122.44-15.15 124.34-18.07 126.24-21 129.39-22.6 132.54-24.2 136.09-24.2L136.09-24.2Q139.19-24.2 141.62-23.25 144.04-22.3 145.42-20.58 146.79-18.85 146.79-16.6L146.79-16.6Q146.79-14.35 145.42-12.73 144.04-11.1 141.82-10.3 139.59-9.5 137.04-9.5L137.04-9.5Q134.64-9.5 132.62-10 130.59-10.5 128.44-11.4L128.44-11.4Q128.49-8.2 130.69-6.38 132.89-4.55 136.14-4.55L136.14-4.55Q141.09-4.6 144.84-7.7L144.84-7.7ZM136.54-19.3Q134.29-19.3 132.27-18.07 130.24-16.85 129.19-14.8L129.19-14.8Q132.29-13.7 135.54-13.7L135.54-13.7Q137.79-13.75 139.17-14.5 140.54-15.25 140.54-16.6L140.54-16.6Q140.54-17.8 139.44-18.55 138.34-19.3 136.54-19.3L136.54-19.3ZM197.54-4.95L201.89-4.95 201.89 0 187.34 0 187.34-4.95 191.29-4.95 191.29-13.4Q191.29-15.6 190.22-16.95 189.14-18.3 187.14-18.3L187.14-18.3Q183.39-18.3 179.69-13.8L179.69-13.8 179.69-13.5 179.69-4.95 183.64-4.95 183.64 0 169.34 0 169.34-4.95 173.44-4.95 173.44-13.4Q173.44-15.6 172.34-16.95 171.24-18.3 169.19-18.3L169.19-18.3Q167.34-18.3 165.42-17.13 163.49-15.95 161.64-13.65L161.64-13.65 161.64-4.95 165.69-4.95 165.69 0 150.39 0 150.39-4.95 155.39-4.95 155.39-18.6 150.39-18.6 150.39-23.55 161.64-23.55 161.64-18.7Q163.74-21.35 166.24-22.75 168.74-24.15 171.49-24.15L171.49-24.15Q174.34-24.15 176.31-22.6 178.29-21.05 179.14-18.1L179.14-18.1Q181.29-21 183.89-22.58 186.49-24.15 189.39-24.15L189.39-24.15Q193.19-24.15 195.37-21.4 197.54-18.65 197.54-13.5L197.54-13.5 197.54-4.95ZM221.64-24.2Q224.54-24.2 227.04-22.63 229.54-21.05 231.04-18.23 232.54-15.4 232.54-11.9L232.54-11.9Q232.54-8.35 230.91-5.45 229.29-2.55 226.44-0.93 223.59 0.7 220.09 0.7L220.09 0.7Q215.39 0.7 211.59-3.1L211.59-3.1 209.79 0 206.19 0 206.19-29.35 201.74-29.35 201.74-34.3 212.34-34.3 212.34-19.05Q214.29-21.45 216.71-22.83 219.14-24.2 221.64-24.2L221.64-24.2ZM218.59-4.55Q221.89-4.55 223.94-6.6 225.99-8.65 225.99-11.95L225.99-11.95Q225.99-15 224.24-16.98 222.49-18.95 219.64-18.95L219.64-18.95Q217.84-18.95 215.94-17.75 214.04-16.55 212.34-14.4L212.34-14.4 212.34-7.05Q215.54-4.55 218.59-4.55L218.59-4.55ZM258.29-7.7L260.88-3.6Q255.89 0.7 249.34 0.7L249.34 0.7Q245.84 0.7 242.76-0.7 239.69-2.1 237.79-4.8 235.89-7.5 235.89-11.25L235.89-11.25Q235.89-15.15 237.79-18.07 239.69-21 242.84-22.6 245.99-24.2 249.54-24.2L249.54-24.2Q252.64-24.2 255.06-23.25 257.49-22.3 258.86-20.58 260.24-18.85 260.24-16.6L260.24-16.6Q260.24-14.35 258.86-12.73 257.49-11.1 255.26-10.3 253.04-9.5 250.49-9.5L250.49-9.5Q248.09-9.5 246.06-10 244.04-10.5 241.89-11.4L241.89-11.4Q241.94-8.2 244.14-6.38 246.34-4.55 249.59-4.55L249.59-4.55Q254.54-4.6 258.29-7.7L258.29-7.7ZM249.99-19.3Q247.74-19.3 245.71-18.07 243.69-16.85 242.64-14.8L242.64-14.8Q245.74-13.7 248.99-13.7L248.99-13.7Q251.24-13.75 252.61-14.5 253.99-15.25 253.99-16.6L253.99-16.6Q253.99-17.8 252.89-18.55 251.79-19.3 249.99-19.3L249.99-19.3ZM285.63-24.15L288.13-24.15 288.13-13.65 282.68-13.65 282.68-17.95Q281.23-17.95 279.21-16.68 277.18-15.4 275.08-13.1L275.08-13.1 275.08-4.95 280.13-4.95 280.13 0 263.83 0 263.83-4.95 268.83-4.95 268.83-18.6 263.83-18.6 263.83-23.55 275.08-23.55 275.08-18.05Q277.58-20.85 280.36-22.5 283.13-24.15 285.63-24.15L285.63-24.15ZM343.03-29.05L337.03-29.05 337.03-5.25 343.03-5.25 343.03 0 324.93 0 324.93-5.25 330.53-5.25 330.53-17.35Q330.53-20.5 331.38-25.5L331.38-25.5 318.68 0.2 315.13 0.2 302.53-25.2Q303.23-20.2 303.23-17.35L303.23-17.35 303.23-5.25 308.83-5.25 308.83 0 291.08 0 291.08-5.25 297.08-5.25 297.08-29.05 291.08-29.05 291.08-34.3 304.33-34.3 317.13-8.75 329.68-34.3 343.03-34.3 343.03-29.05ZM368.03-7.7L370.63-3.6Q365.63 0.7 359.08 0.7L359.08 0.7Q355.58 0.7 352.5-0.7 349.43-2.1 347.53-4.8 345.63-7.5 345.63-11.25L345.63-11.25Q345.63-15.15 347.53-18.07 349.43-21 352.58-22.6 355.73-24.2 359.28-24.2L359.28-24.2Q362.38-24.2 364.8-23.25 367.23-22.3 368.6-20.58 369.98-18.85 369.98-16.6L369.98-16.6Q369.98-14.35 368.6-12.73 367.23-11.1 365-10.3 362.78-9.5 360.23-9.5L360.23-9.5Q357.83-9.5 355.8-10 353.78-10.5 351.63-11.4L351.63-11.4Q351.68-8.2 353.88-6.38 356.08-4.55 359.33-4.55L359.33-4.55Q364.28-4.6 368.03-7.7L368.03-7.7ZM359.73-19.3Q357.48-19.3 355.45-18.07 353.43-16.85 352.38-14.8L352.38-14.8Q355.48-13.7 358.73-13.7L358.73-13.7Q360.98-13.75 362.35-14.5 363.73-15.25 363.73-16.6L363.73-16.6Q363.73-17.8 362.63-18.55 361.53-19.3 359.73-19.3L359.73-19.3Z" opacity="1" transform="matrix(1,0,0,1,0,0)" fill="#729343" class="undefined-text-0" data-fill-palette-color="primary" id="text-0"></path></svg></g></svg></g><g transform="matrix(1,0,0,1,0,37.10761134876661)"><svg viewBox="0 0 316.416 18.552664895635676" height="18.552664895635676" width="316.416"><g transform="matrix(1,0,0,1,0,0)"><svg width="316.416" viewBox="2.299999952316284 -37.5 851.9000244140625 49.95000076293945" height="18.552664895635676" data-palette-color="#096a2e"><path d="M41.4 0L31.3 0 31.3-2.75 34.5-2.75 34.5-29.2 23.1-6.55 19.7-6.55 8.3-29.2 8.3-2.75 12.4-2.75 12.4 0 2.3 0 2.3-2.75 5.15-2.75 5.15-32.25 2.3-32.25 2.3-35 8.55-35 21.4-9.4 34.25-35 40.85-35 40.85-32.25 37.65-32.25 37.65-2.75 41.4-2.75 41.4 0ZM99.6-22.5L96.85-22.5 96.85-25 106.05-25 106.05-22.5 103.05-22.5 93.1 0 91.45 9.95 95.65 9.95 95.65 12.45 85.1 12.45 85.1 9.95 88.2 9.95 89.75 0 88.9 0 80.8-22.5 77.4-22.5 77.4-25 87.95-25 87.95-22.5 84.5-22.5 91.1-2.35 99.6-22.5ZM224.7 0L214.6 0 214.6-2.75 217.65-2.75 215.35-9.25 199.95-9.25 197.7-2.75 201.3-2.75 201.3 0 191.2 0 191.2-2.75 194.5-2.75 206.15-35 209.2-35 221.25-2.75 224.7-2.75 224.7 0ZM214.45-11.75L207.5-31.2 200.8-11.75 214.45-11.75ZM262-1.85L262-1.85Q260.25-3 259.17-5.48 258.1-7.95 258.1-11.5L258.1-11.5Q258.1-18.05 261.45-21.5L261.45-21.5Q265-25.2 269.55-25.2L269.55-25.2Q272.35-25.2 275.25-23.75L275.25-23.75 275.25-35 271.9-35 271.9-37.5 278.5-37.5 278.5-2.5 282.35-2.5 282.35 0 275.75 0 275.35-1.6Q272.5 0.2 268.8 0.2 265.1 0.2 262-1.85ZM275.25-4.05L275.25-4.05 275.25-21.6Q272.95-22.3 270.9-22.3L270.9-22.3Q266.6-22.3 263.97-19.48 261.35-16.65 261.35-11.55L261.35-11.55Q261.35-8.85 262.12-6.98 262.9-5.1 264.2-4.2L264.2-4.2Q266.45-2.7 269.45-2.7 272.45-2.7 275.25-4.05ZM322.05-1.85L322.05-1.85Q320.3-3 319.22-5.48 318.15-7.95 318.15-11.5L318.15-11.5Q318.15-18.05 321.5-21.5L321.5-21.5Q325.05-25.2 329.6-25.2L329.6-25.2Q332.4-25.2 335.3-23.75L335.3-23.75 335.3-35 331.95-35 331.95-37.5 338.55-37.5 338.55-2.5 342.4-2.5 342.4 0 335.8 0 335.4-1.6Q332.55 0.2 328.85 0.2 325.15 0.2 322.05-1.85ZM335.3-4.05L335.3-4.05 335.3-21.6Q333-22.3 330.95-22.3L330.95-22.3Q326.65-22.3 324.02-19.48 321.4-16.65 321.4-11.55L321.4-11.55Q321.4-8.85 322.17-6.98 322.95-5.1 324.25-4.2L324.25-4.2Q326.5-2.7 329.5-2.7 332.5-2.7 335.3-4.05ZM384.4-16.75L384.4-2.5 388.55-2.5 388.55 0 378.05 0 378.05-2.5 381.15-2.5 381.15-22.5 377.8-22.5 377.8-25 384.4-25 384.4-18.95Q388.35-24.75 392.15-24.85L392.15-24.85Q392.45-24.85 392.75-24.85L392.75-24.85 395.55-24.5 394.25-21.5Q393.3-21.95 391.8-21.95L391.8-21.95Q388.2-21.9 384.4-16.75L384.4-16.75ZM433.85-11.2L433.85-11.2Q433.85-6.75 436.4-4.73 438.95-2.7 442.35-2.7L442.35-2.7Q444.55-2.7 446.87-3.13 449.2-3.55 449.95-3.9L449.95-3.9 450.6-1.55Q449.45-0.8 446.82-0.3 444.2 0.2 442.02 0.2 439.85 0.2 438.12-0.25 436.4-0.7 434.6-1.85 432.8-3 431.75-5.45 430.7-7.9 430.7-11.45L430.7-11.45Q430.7-18.05 434.1-21.55L434.1-21.55Q437.65-25.2 442.35-25.2 447.05-25.2 449.52-22.6 452-20 452-15.3L452-15.3Q452-14.3 451.85-13.15L451.85-13.15 434-13.15Q433.85-12.1 433.85-11.2ZM449-15.65L449-15.65Q449-18.75 447.15-20.43 445.3-22.1 442.85-22.1L442.85-22.1Q439.5-22.1 437.3-20.08 435.1-18.05 434.35-15.1L434.35-15.1 449-15.1Q449-15.4 449-15.65ZM491.75-8.05L492-3.25Q494.1-2.6 495.37-2.6 496.65-2.6 497.05-2.65L497.05-2.65Q499.65-2.7 501.4-3.75 503.15-4.8 503.15-6.7 503.15-8.6 501.77-9.65 500.4-10.7 498.45-11.25 496.5-11.8 494.55-12.45 492.6-13.1 491.22-14.5 489.85-15.9 489.85-18.15L489.85-18.15Q489.85-21.35 492.3-23.28 494.75-25.2 498.5-25.2L498.5-25.2Q501.3-25.2 504.15-24.2L504.15-24.2 505.05-23.85 505.05-18.1 502.6-17.75 502.4-22Q500.4-22.3 499.05-22.3L499.05-22.3Q496.3-22.3 494.7-21.23 493.1-20.15 493.1-18.48 493.1-16.8 494.47-15.85 495.85-14.9 497.8-14.35 499.75-13.8 501.7-13.13 503.65-12.45 505.02-10.93 506.4-9.4 506.4-6.95L506.4-6.95Q506.4-3.65 503.92-1.73 501.45 0.2 496.9 0.2 492.35 0.2 489.35-1.95L489.35-1.95 489.35-7.7 491.75-8.05ZM546.4-8.05L546.65-3.25Q548.75-2.6 550.02-2.6 551.3-2.6 551.7-2.65L551.7-2.65Q554.3-2.7 556.05-3.75 557.8-4.8 557.8-6.7 557.8-8.6 556.42-9.65 555.05-10.7 553.1-11.25 551.15-11.8 549.2-12.45 547.25-13.1 545.87-14.5 544.5-15.9 544.5-18.15L544.5-18.15Q544.5-21.35 546.95-23.28 549.4-25.2 553.15-25.2L553.15-25.2Q555.95-25.2 558.8-24.2L558.8-24.2 559.7-23.85 559.7-18.1 557.25-17.75 557.05-22Q555.05-22.3 553.7-22.3L553.7-22.3Q550.95-22.3 549.35-21.23 547.75-20.15 547.75-18.48 547.75-16.8 549.12-15.85 550.5-14.9 552.45-14.35 554.4-13.8 556.35-13.13 558.3-12.45 559.67-10.93 561.05-9.4 561.05-6.95L561.05-6.95Q561.05-3.65 558.57-1.73 556.1 0.2 551.55 0.2 547 0.2 544-1.95L544-1.95 544-7.7 546.4-8.05ZM650.95-32.25L647.7-32.25 647.7-35 658.45-35Q669.25-35 669.25-26.55L669.25-26.55Q669.25-23 666.55-18.9L666.55-18.9Q671.3-16.95 671.3-10.35L671.3-10.35Q671.3-4.45 668.32-2.23 665.35 0 659.2 0L659.2 0 647.7 0 647.7-2.75 650.95-2.75 650.95-32.25ZM660.2-17.15L660.2-17.15 654.35-17.15 654.35-2.75 658.95-2.75Q661.25-2.75 662.7-3 664.15-3.25 665.45-4L665.45-4Q667.9-5.35 667.9-10.15L667.9-10.15Q667.9-13.95 665.97-15.55 664.05-17.15 660.2-17.15ZM654.35-19.9L660.45-19.9Q662.3-19.9 663.65-19.7L663.65-19.7Q665.85-23.15 665.85-26.25L665.85-26.25Q665.85-32.25 658.2-32.25L658.2-32.25 654.35-32.25 654.35-19.9ZM719.32 0.2Q714.1 0.2 710.87-2.8 707.65-5.8 707.65-11.98 707.65-18.15 711.07-21.68 714.5-25.2 719.7-25.2 724.9-25.2 728.15-22.2 731.4-19.2 731.4-13.03 731.4-6.85 727.97-3.33 724.55 0.2 719.32 0.2ZM719.62-22.3Q715.9-22.3 713.4-19.6 710.9-16.9 710.9-12.28 710.9-7.65 713.27-5.18 715.65-2.7 719.4-2.7 723.15-2.7 725.65-5.38 728.15-8.05 728.15-12.68 728.15-17.3 725.75-19.8 723.35-22.3 719.62-22.3ZM781.17 0.2Q775.95 0.2 772.72-2.8 769.5-5.8 769.5-11.98 769.5-18.15 772.92-21.68 776.35-25.2 781.55-25.2 786.75-25.2 790-22.2 793.25-19.2 793.25-13.03 793.25-6.85 789.82-3.33 786.4 0.2 781.17 0.2ZM781.47-22.3Q777.75-22.3 775.25-19.6 772.75-16.9 772.75-12.28 772.75-7.65 775.12-5.18 777.5-2.7 781.25-2.7 785-2.7 787.5-5.38 790-8.05 790-12.68 790-17.3 787.6-19.8 785.2-22.3 781.47-22.3ZM844.6-22.5L842.55-22.5 842.55-25 853.05-25 853.05-22.5 848.35-22.5 839.95-13.3 849.45-2.5 854.2-2.5 854.2 0 847.85 0 836.7-13.3 836.7-2.5 840.45-2.5 840.45 0 830.35 0 830.35-2.5 833.45-2.5 833.45-35 830.1-35 830.1-37.5 836.7-37.5 836.7-13.3 844.6-22.5Z" opacity="1" transform="matrix(1,0,0,1,0,0)" fill="#096a2e" class="undefined-text-1" data-fill-palette-color="secondary" id="text-1"></path></svg></g></svg></g></svg></g></svg></g></svg></g></svg></g></svg></g><g mask="url(#15ba1d1e-c040-4dec-bc93-9c6b19bd064f)"><g transform="matrix(2.5941328374117316, 0, 0, 2.5941328374117316, 116.93601440949288, 0.9999999999999858)"><svg xmlns="http://www.w3.org/2000/svg" xmlns:xlink="http://www.w3.org/1999/xlink" version="1.1" x="0" y="0" viewBox="19.379079818725586 3.072000026702881 62.31291198730469 94.52098846435547" enable-background="new 0 0 100 100" xml:space="preserve" height="94.52098846435547" width="62.31291198730469" class="icon-none" data-fill-palette-color="accent" id="none"><path d="M73.854 7.813V3.072l-42.788 8.963c-12.435-1.057-11.678 9.918-11.678 9.918v44.843c0.139 11.492 11.678 10.379 11.678 10.379l3.992 0.904v19.506l5.559-6.844 5.468 6.852v-17.01l27.769 6.303V81.32h7.838V7.813H73.854zM44.777 93.578l-4.175-5.49-4.245 5.49V78.377l8.42 1.91V93.578zM72.461 84.754l-40.608-9.223c0 0-10.833 1.508-10.833-10.025V23.123c0 0-0.729-11.253 10.833-9.414l40.608-8.503V84.754zM80.355 79.982h-6.502v-2.066h3.516V11.247h-3.516V9.161h6.502V79.982z" fill="#096a2e" data-fill-palette-color="accent"></path><path d="M30.46 17.136c0-0.297-0.241-0.538-0.538-0.538-0.297 0-0.538 0.241-0.538 0.538h-0.002v56.116h0.002c0 0.297 0.241 0.539 0.538 0.539 0.297 0 0.538-0.242 0.538-0.539h0.001V17.136H30.46z" fill="#096a2e" data-fill-palette-color="accent"></path></svg></g></g></svg></g><defs><mask id="9e435ca8-ff76-4a0c-b354-59ce017e8712"><rect width="640" height="400" fill="white"></rect><rect width="348.05760000000004" height="69.83451222466795" fill="black" x="145.97119999999998" y="165.08274388766603" id="transform-me" transform="matrix(1,0,0,1,-122.24000000000001,-76.4)"></rect></mask><mask id="7027eaa9-9747-454b-896c-f7c9cd5e8e0a"><rect width="640" height="400" fill="white"></rect><rect width="348.05760000000004" height="69.83451222466795" fill="black" x="145.97119999999998" y="165.08274388766603" id="transform-me" transform="matrix(1,0,0,1,-122.24000000000001,-76.4)"></rect></mask><mask id="c87f9633-e42c-4d84-be62-d549a27962d5"><rect width="640" height="400" fill="white"></rect><rect width="348.05760000000004" height="69.83451222466795" fill="black" x="145.97119999999998" y="165.08274388766603" id="transform-me" transform="matrix(1,0,0,1,-122.24000000000001,-76.4)"></rect></mask><mask id="15ba1d1e-c040-4dec-bc93-9c6b19bd064f"><rect width="640" height="400" fill="white"></rect><rect width="348.05760000000004" height="69.83451222466795" fill="black" x="145.97119999999998" y="165.08274388766603" id="transform-me" transform="matrix(1,0,0,1,-122.24000000000001,-76.4)"></rect></mask></defs></svg><rect width="395.52" height="247.2" fill="none" stroke="none" visibility="hidden"></rect></g></svg></g></svg>